<svg xmlns="http://www.w3.org/2000/svg" viewBox="0 0 470.72 102.51"><defs><style>.cls-1{fill:none;}.cls-2{fill:#4ea558;}.cls-3{fill:#1c85c5;}.cls-4{fill:#6dcc7e;}.cls-5{fill:#4eafac;}.cls-6{fill:#115c83;}.cls-7{fill:#288b57;}.cls-8{fill:#278782;}.cls-9{fill:#12562e;}.cls-10{fill:#0a4663;}.cls-11{fill:#89ce5f;}.cls-12{fill:#2e8428;}.cls-13{fill:#40a437;}.cls-14{fill:#fff;}</style></defs><title>SYMFL17-027__Logo_20170424_RGB</title><g id="Ebene_1" data-name="Ebene 1"><circle class="cls-1" cx="49.19" cy="72.91"/><polygon class="cls-1" points="49.19 29.6 49.19 29.6 49.19 29.6 30.44 40.43 30.44 62.08 49.19 72.91 67.94 62.08 67.94 40.43 49.19 29.6"/><path class="cls-2" d="M86.7,51.26l5.43-3.14A12.5,12.5,0,0,0,96.71,31L90.46,20.22a12.5,12.5,0,0,0-17.08-4.58l-5.43,3.14V40.43Z"/><path class="cls-3" d="M49.19,72.91h0L30.44,83.74h0V90a12.5,12.5,0,0,0,12.5,12.5h12.5A12.5,12.5,0,0,0,67.95,90V83.74h0Z"/><path class="cls-4" d="M30.44,40.43V18.78L25,15.64A12.5,12.5,0,0,0,7.93,20.22L1.68,31A12.5,12.5,0,0,0,6.25,48.12l5.43,3.14h0Z"/><polygon class="cls-4" points="49.19 29.6 49.19 29.6 30.44 40.43 30.44 62.08 30.44 62.08 30.44 40.43 49.19 29.6"/><polygon class="cls-5" points="30.44 62.08 49.19 72.91 49.19 72.91 30.44 62.08 30.44 62.08"/><path class="cls-5" d="M11.69,51.26h0L6.25,54.39A12.5,12.5,0,0,0,1.68,71.47L7.93,82.3A12.5,12.5,0,0,0,25,86.87l5.43-3.14h0V62.08Z"/><polygon class="cls-6" points="30.44 62.08 30.44 83.74 49.19 72.91 30.44 62.08"/><polygon class="cls-7" points="30.44 62.08 30.44 62.08 30.44 62.08 30.44 40.43 11.69 51.26 11.69 51.26 11.69 51.26 30.44 62.08"/><path class="cls-8" d="M92.13,54.39,86.7,51.26,67.95,62.08,49.19,72.91h0L67.95,62.08V83.74l5.43,3.14A12.5,12.5,0,0,0,90.46,82.3l6.25-10.83A12.5,12.5,0,0,0,92.13,54.39Z"/><polygon class="cls-9" points="67.94 62.08 86.7 51.26 67.94 40.43 67.94 62.08"/><polygon class="cls-10" points="49.19 72.91 67.94 83.74 67.94 83.74 67.94 62.08 49.19 72.91"/><path class="cls-11" d="M49.19,29.6h0L67.95,18.78V12.5A12.5,12.5,0,0,0,55.44,0H42.94a12.5,12.5,0,0,0-12.5,12.5v6.27h0Z"/><polygon class="cls-12" points="67.94 40.43 67.94 18.78 49.19 29.6 67.94 40.43"/><polygon class="cls-13" points="49.19 29.6 30.44 18.78 30.44 18.78 30.44 40.43 49.19 29.6"/><path class="cls-14" d="M143.05,73.34a60.88,60.88,0,0,1-12.39-1.18c-1-.24-1.65-.71-1.65-1.57V67.84a1.27,1.27,0,0,1,1.41-1.18h.31c3.76.47,9.49.86,12.31.86,5.1,0,7.76-1.33,7.76-5.57,0-2.35-1.41-3.84-5.88-6.51L137,50.75c-4.78-2.9-8-6.27-8-11.21,0-8.16,6.12-10.43,14.2-10.43a73.54,73.54,0,0,1,12.24,1c1,.16,1.49.71,1.49,1.57v2.59a1.2,1.2,0,0,1-1.33,1.33h-.24c-2.75-.24-7.76-.63-12.16-.63s-7.29.55-7.29,4.55c0,2.35,1.8,3.84,5.41,6l7.76,4.63c6.51,3.84,8.63,7.21,8.63,11.84C157.72,70,151.84,73.34,143.05,73.34Z"/><path class="cls-14" d="M198.84,31.53,185.9,76.71c-2.43,8.47-5.33,11.61-14.35,11.61a32.58,32.58,0,0,1-6.59-.71c-.94-.24-1.65-.47-1.65-1.25v-2.9c0-.86.63-1.25,1.49-1.25H165c1.73.16,5.25.47,7,.47,4.47,0,6.43-1.18,7.76-6.67l.78-3.22h-1.1c-2.35,0-4.39-.55-5.8-5.41L163.23,31.53a1.34,1.34,0,0,1-.08-.55,1.26,1.26,0,0,1,1.41-1.33h4.31a1.58,1.58,0,0,1,1.33,1.25l9.25,34c.39,1.57.94,1.73,1.49,1.73h1.25l9.57-35.84a1.6,1.6,0,0,1,1.49-1.18h4.39A1.22,1.22,0,0,1,198.91,31,1.34,1.34,0,0,1,198.84,31.53Z"/><path class="cls-14" d="M255.81,72.79H252a1.57,1.57,0,0,1-1.57-1.57V43.45c0-6.59-3.06-8.39-7.14-8.39a27.2,27.2,0,0,0-9.18,2.12,23.42,23.42,0,0,1,.71,6.12V71.22a1.49,1.49,0,0,1-1.41,1.57H229.3A1.44,1.44,0,0,1,228,71.22V43.3c0-6.82-2-8.23-6-8.23-2.82,0-6.27,1.41-9.57,3.06v33.1a1.49,1.49,0,0,1-1.41,1.57h-4.16a1.44,1.44,0,0,1-1.33-1.57v-40a1.51,1.51,0,0,1,1.49-1.57h3.92a1.51,1.51,0,0,1,1.49,1.57v1.49A22.05,22.05,0,0,1,223.81,29c3.37,0,5.88.94,7.84,3.21a31.48,31.48,0,0,1,13-3.21c7.06,0,12.71,3.53,12.71,14.43V71.22A1.57,1.57,0,0,1,255.81,72.79Z"/><path class="cls-14" d="M287.16,18.59H283.4c-3.69,0-4.78,1.1-4.78,5.41v5.65h8.24a1.43,1.43,0,0,1,1.49,1.41v3.06a1.36,1.36,0,0,1-1.49,1.33h-8.24V71.22a1.61,1.61,0,0,1-1.49,1.57h-3.84a1.63,1.63,0,0,1-1.57-1.57V35.45l-7.61-.86a1.48,1.48,0,0,1-1.49-1.41V31.06a1.43,1.43,0,0,1,1.49-1.41h7.61V24c0-8.39,4.08-10.9,11-10.9a18,18,0,0,1,4.39.47c.86.24,1.49.55,1.49,1.25v2.59C288.58,18.28,288,18.59,287.16,18.59Z"/><path class="cls-14" d="M300.42,72.79h-4.08a1.5,1.5,0,0,1-1.41-1.57V15.3a1.42,1.42,0,0,1,1.41-1.49h4.08a1.43,1.43,0,0,1,1.41,1.49V71.22A1.49,1.49,0,0,1,300.42,72.79Z"/><path class="cls-14" d="M327.1,73.34c-11.53,0-17.41-7.61-17.41-19.14v-6c0-11.53,5.88-19.14,17.41-19.14s17.49,7.61,17.49,19.14v6C344.59,65.73,338.63,73.34,327.1,73.34Zm10.59-25.1c0-8-3.22-13.1-10.59-13.1s-10.51,5-10.51,13.1v6c0,8,3.14,13.1,10.51,13.1s10.59-5,10.59-13.1Z"/><path class="cls-14" d="M404.77,31.53l-7.61,36.39c-1,4.94-1.88,5.41-6.59,5.41-4.08,0-5.18-.71-6.43-5.65L377.32,41c-.16-.55-.16-.55-.39-.55s-.24,0-.39.55l-6.82,26.67c-1.18,4.55-2.35,5.65-6.43,5.65-4.71,0-5.57-.55-6.59-5.41l-7.61-36.39v-.31a1.56,1.56,0,0,1,1.49-1.57h4.23a1.43,1.43,0,0,1,1.33,1.25l6.51,35.76c.16.94.39.94.63.94s.47-.24.63-.94l7.69-30.12a2.85,2.85,0,0,1,3.14-2.35h4.39a2.85,2.85,0,0,1,3.14,2.35l7.69,30.12c.16.71.39.94.63.94s.47,0,.63-.94l6.51-35.76A1.43,1.43,0,0,1,399,29.65h4.24a1.56,1.56,0,0,1,1.49,1.57Z"/><path class="cls-14" d="M442.57,53.41H416.3v1.1c0,9.33,3.69,12.78,10.9,12.78a107.5,107.5,0,0,0,14-.86h.39a1.11,1.11,0,0,1,1.25,1.1V70.2c0,1-.31,1.57-1.57,1.8a71.16,71.16,0,0,1-14,1.33c-9,0-17.8-4.24-17.8-18.82V47.45c0-11.22,6.2-18.35,17.41-18.35,11.45,0,17.25,7.22,17.25,18.35v4.24C444.06,52.71,443.51,53.41,442.57,53.41Zm-5.49-6c0-8.86-3.37-12.31-10.27-12.31-6.75,0-10.51,3.84-10.51,12.31v.71h20.78Z"/><path class="cls-14" d="M469.07,35.06a20.08,20.08,0,0,0-10.82,3.29V71.22a1.63,1.63,0,0,1-1.57,1.57h-3.84a1.56,1.56,0,0,1-1.49-1.57v-40a1.51,1.51,0,0,1,1.49-1.57h3.69A1.51,1.51,0,0,1,458,31.22v1.65a18.75,18.75,0,0,1,11.06-3.76q1.65,0,1.65,1.41v3.21C470.72,34.59,470.17,35.06,469.07,35.06Z"/><path class="cls-14" d="M212.83,98.76h-1.47a.29.29,0,0,1-.26-.24l-.64-2.63h-3.18l-.64,2.63a.29.29,0,0,1-.26.24h-1.47a.24.24,0,0,1-.25-.24.59.59,0,0,0,0-.07L207,89.79a2,2,0,0,1,3.84,0l2.27,8.67a.59.59,0,0,0,0,.07A.24.24,0,0,1,212.83,98.76Zm-3.73-8.54c0-.17-.08-.22-.22-.22s-.18.06-.22.22l-1,4.11h2.43Z"/><path class="cls-14" d="M219.15,98.87c-2.23,0-3.8-1-3.8-3.91V88.76a.27.27,0,0,1,.28-.26H217a.27.27,0,0,1,.28.26V95c0,1.58.39,2.32,1.88,2.32S221,96.54,221,95V88.76a.27.27,0,0,1,.28-.26h1.37a.27.27,0,0,1,.28.26V95C223,97.91,221.38,98.87,219.15,98.87Z"/><path class="cls-14" d="M232.33,90.1h-2.42v8.39a.28.28,0,0,1-.28.28h-1.37a.28.28,0,0,1-.28-.28V90.1h-2.42a.25.25,0,0,1-.28-.25V88.76a.27.27,0,0,1,.28-.26h6.76a.27.27,0,0,1,.28.26v1.09A.25.25,0,0,1,232.33,90.1Z"/><path class="cls-14" d="M238.69,98.87c-2.28,0-3.94-1.27-3.94-4.31V92.69c0-3,1.66-4.31,3.94-4.31s3.94,1.27,3.94,4.31v1.87C242.63,97.6,241,98.87,238.69,98.87Zm2-6.18c0-1.82-.65-2.64-2-2.64s-2,.82-2,2.64v1.87c0,1.83.65,2.64,2,2.64s2-.82,2-2.64Z"/><path class="cls-14" d="M254.1,98.76h-1.4a.26.26,0,0,1-.22-.28V92.06c0-.1,0-.14,0-.14s0,0-.07.08L251,94.64a.5.5,0,0,1-.44.24h-1.4a.5.5,0,0,1-.44-.24L247.42,92s-.06-.08-.07-.08,0,0,0,.14v6.43a.26.26,0,0,1-.22.28h-1.4a.21.21,0,0,1-.24-.21V89a.55.55,0,0,1,.55-.55h1.13a.58.58,0,0,1,.51.33l2.09,4.23c.07.13.1.19.15.19s.08-.07.15-.19l2.09-4.23a.58.58,0,0,1,.51-.33h1.13a.55.55,0,0,1,.55.55v9.51A.21.21,0,0,1,254.1,98.76Z"/><path class="cls-14" d="M264.83,98.76h-1.47a.29.29,0,0,1-.26-.24l-.64-2.63h-3.18l-.64,2.63a.29.29,0,0,1-.26.24h-1.47a.24.24,0,0,1-.25-.24.59.59,0,0,0,0-.07l2.27-8.67a2,2,0,0,1,3.84,0l2.27,8.67a.59.59,0,0,0,0,.07A.24.24,0,0,1,264.83,98.76Zm-3.73-8.54c0-.17-.08-.22-.22-.22s-.18.06-.22.22l-1,4.11h2.43Z"/><path class="cls-14" d="M273.75,90.1h-2.42v8.39a.28.28,0,0,1-.28.28h-1.37a.28.28,0,0,1-.28-.28V90.1H267a.25.25,0,0,1-.28-.25V88.76a.27.27,0,0,1,.28-.26h6.76a.27.27,0,0,1,.28.26v1.09A.25.25,0,0,1,273.75,90.1Z"/><path class="cls-14" d="M278.09,98.76h-1.37a.28.28,0,0,1-.28-.28V88.76a.27.27,0,0,1,.28-.26h1.37a.27.27,0,0,1,.28.26v9.73A.28.28,0,0,1,278.09,98.76Z"/><path class="cls-14" d="M288.69,98.76h-1.4a.74.74,0,0,1-.84-.5l-3.07-6.73c0-.08-.08-.11-.12-.11s-.07,0-.07.11v7a.27.27,0,0,1-.26.28h-1.17a.28.28,0,0,1-.28-.28V89a.55.55,0,0,1,.55-.55h1.49c.29,0,.44.08.61.44L287.35,96c0,.07.07.11.11.11s.07,0,.07-.12V88.76a.25.25,0,0,1,.26-.26H289a.25.25,0,0,1,.26.26v9.46A.55.55,0,0,1,288.69,98.76Z"/><path class="cls-14" d="M298.79,98.64a15.23,15.23,0,0,1-3,.23c-1.49,0-3.71-1-3.71-4.24v-2c0-3.28,2.1-4.26,3.75-4.26a18.36,18.36,0,0,1,3,.25c.18,0,.26.11.26.29v.93c0,.19-.06.29-.28.29h0c-.64-.05-1.59-.11-2.92-.11-.93,0-1.81.65-1.81,2.61v2c0,2,1,2.6,1.77,2.6.51,0,.94,0,1.37,0V93.66a.27.27,0,0,1,.26-.28h1.37a.28.28,0,0,1,.28.28v4.65A.31.31,0,0,1,298.79,98.64Z"/><path class="cls-14" d="M311.3,98.81v.29c0,.36.18.44.42.44h1.34c.19,0,.33.08.33.22v.86c0,.14-.11.24-.3.29a7.21,7.21,0,0,1-1.37.15c-1.31,0-2.24-.54-2.24-1.94v-.32c-1.8-.32-3-1.63-3-4.24V92.69c0-3,1.66-4.31,3.94-4.31s3.94,1.27,3.94,4.31v1.87C314.33,97.17,313.1,98.49,311.3,98.81Zm1.09-6.11c0-1.82-.65-2.64-2-2.64s-2,.82-2,2.64v1.87c0,1.83.65,2.64,2,2.64s2-.82,2-2.64Z"/><path class="cls-14" d="M321,98.87c-2.23,0-3.8-1-3.8-3.91V88.76a.27.27,0,0,1,.28-.26h1.37a.27.27,0,0,1,.28.26V95c0,1.58.39,2.32,1.88,2.32s1.88-.75,1.88-2.32V88.76a.27.27,0,0,1,.28-.26h1.37a.27.27,0,0,1,.28.26V95C324.76,97.91,323.19,98.87,321,98.87Z"/><path class="cls-14" d="M335.18,98.76h-1.47a.29.29,0,0,1-.26-.24l-.64-2.63h-3.18L329,98.53a.29.29,0,0,1-.26.24h-1.47a.24.24,0,0,1-.25-.24.59.59,0,0,0,0-.07l2.27-8.67a2,2,0,0,1,3.84,0l2.27,8.67a.59.59,0,0,0,0,.07A.24.24,0,0,1,335.18,98.76Zm-3.73-8.54c0-.17-.08-.22-.22-.22s-.18.06-.22.22l-1,4.11h2.43Z"/><path class="cls-14" d="M343.31,98.68a15,15,0,0,1-2.35.19c-1.8,0-3.19-.48-3.19-2.83V88.77a.28.28,0,0,1,.28-.28h1.37a.28.28,0,0,1,.28.28V96c0,.91.28,1.19,1.08,1.19h2.54a.28.28,0,0,1,.28.28v.88C343.58,98.58,343.51,98.64,343.31,98.68Z"/><path class="cls-14" d="M347.58,98.76h-1.37a.28.28,0,0,1-.28-.28V88.76a.27.27,0,0,1,.28-.26h1.37a.27.27,0,0,1,.28.26v9.73A.28.28,0,0,1,347.58,98.76Z"/><path class="cls-14" d="M357.31,90.1h-2.42v8.39a.28.28,0,0,1-.28.28h-1.37a.28.28,0,0,1-.28-.28V90.1h-2.42a.25.25,0,0,1-.28-.25V88.76a.27.27,0,0,1,.28-.26h6.76a.27.27,0,0,1,.28.26v1.09A.25.25,0,0,1,357.31,90.1Z"/><path class="cls-14" d="M367.09,88.81l-2.1,4.8a1.69,1.69,0,0,1-.84,1v3.87a.27.27,0,0,1-.26.28H362.5a.27.27,0,0,1-.26-.28V94.62a1.69,1.69,0,0,1-.84-1l-2.09-4.8a.44.44,0,0,1,0-.11.21.21,0,0,1,.22-.21H361a.31.31,0,0,1,.26.22L363,92.83c.1.24.18.28.24.28s.15,0,.25-.28l1.66-4.12a.31.31,0,0,1,.26-.22h1.52a.22.22,0,0,1,.23.21A.33.33,0,0,1,367.09,88.81Z"/><path class="cls-14" d="M381.41,98.76h-1.47a.29.29,0,0,1-.26-.24L379,95.9h-3.18l-.64,2.63a.29.29,0,0,1-.26.24H373.5a.24.24,0,0,1-.25-.24.59.59,0,0,0,0-.07l2.27-8.67a2,2,0,0,1,3.84,0l2.27,8.67a.59.59,0,0,0,0,.07A.24.24,0,0,1,381.41,98.76Zm-3.73-8.54c0-.17-.08-.22-.22-.22s-.18.06-.22.22l-1,4.11h2.43Z"/><path class="cls-14" d="M386.58,98.87a10.56,10.56,0,0,1-2.45-.25.29.29,0,0,1-.26-.28v-1a.26.26,0,0,1,.26-.26h0c.55.07,1.94.14,2.45.14,1.23,0,1.6-.44,1.6-1.24,0-.54-.26-.82-1.18-1.36l-1.82-1.09A2.72,2.72,0,0,1,383.58,91c0-1.52.88-2.63,3.46-2.63a15.48,15.48,0,0,1,2.65.25.28.28,0,0,1,.25.26v1a.24.24,0,0,1-.24.25h0c-.91-.08-1.82-.14-2.72-.14s-1.45.36-1.45,1c0,.46.23.73,1.13,1.23l1.66.93c1.52.84,1.92,1.73,1.92,2.82C390.21,97.38,389.34,98.87,386.58,98.87Z"/><path class="cls-14" d="M395.49,98.87a10.56,10.56,0,0,1-2.45-.25.29.29,0,0,1-.26-.28v-1a.26.26,0,0,1,.26-.26h0c.55.07,1.94.14,2.45.14,1.23,0,1.6-.44,1.6-1.24,0-.54-.26-.82-1.18-1.36l-1.82-1.09A2.72,2.72,0,0,1,392.49,91c0-1.52.88-2.63,3.46-2.63a15.48,15.48,0,0,1,2.65.25.28.28,0,0,1,.25.26v1a.24.24,0,0,1-.23.25h0c-.91-.08-1.82-.14-2.72-.14s-1.45.36-1.45,1c0,.46.24.73,1.13,1.23l1.66.93c1.52.84,1.92,1.73,1.92,2.82C399.13,97.38,398.25,98.87,395.49,98.87Z"/><path class="cls-14" d="M405.55,98.87c-2.23,0-3.8-1-3.8-3.91V88.76a.27.27,0,0,1,.28-.26h1.37a.27.27,0,0,1,.28.26V95c0,1.58.39,2.32,1.88,2.32s1.88-.75,1.88-2.32V88.76a.27.27,0,0,1,.28-.26h1.37a.27.27,0,0,1,.28.26V95C409.35,97.91,407.78,98.87,405.55,98.87Z"/><path class="cls-14" d="M419.69,98.76H418c-.15,0-.21-.14-.28-.28l-2-3.69h-.19c-.36,0-.91,0-1.23-.05v3.75a.27.27,0,0,1-.26.28h-1.38a.28.28,0,0,1-.28-.28V89c0-.28.17-.37.44-.41a18.78,18.78,0,0,1,2.71-.18c2.13,0,4,.76,4,3.12v.12a2.8,2.8,0,0,1-1.87,2.82l2.17,4a.19.19,0,0,1,0,.11A.15.15,0,0,1,419.69,98.76Zm-2.07-7.26c0-1-.69-1.48-2.07-1.48-.29,0-1,0-1.23.06v3.11l1.23,0c1.42,0,2.07-.39,2.07-1.6Z"/><path class="cls-14" d="M429.83,98.76h-1.47a.29.29,0,0,1-.26-.24l-.64-2.63h-3.18l-.64,2.63a.29.29,0,0,1-.26.24h-1.47a.24.24,0,0,1-.25-.24.59.59,0,0,0,0-.07L424,89.79a2,2,0,0,1,3.84,0l2.27,8.67a.59.59,0,0,0,0,.07A.24.24,0,0,1,429.83,98.76Zm-3.73-8.54c0-.17-.08-.22-.22-.22s-.18.06-.22.22l-1,4.11h2.43Z"/><path class="cls-14" d="M439.63,98.76h-1.4a.74.74,0,0,1-.84-.5l-3.07-6.73c0-.08-.08-.11-.12-.11s-.07,0-.07.11v7a.27.27,0,0,1-.26.28h-1.17a.28.28,0,0,1-.28-.28V89a.55.55,0,0,1,.55-.55h1.49c.29,0,.44.08.61.44L438.29,96c0,.07.07.11.11.11s.07,0,.07-.12V88.76a.25.25,0,0,1,.26-.26h1.19a.25.25,0,0,1,.26.26v9.46A.55.55,0,0,1,439.63,98.76Z"/><path class="cls-14" d="M449.11,98.65a10.5,10.5,0,0,1-2.18.22c-1.66,0-3.91-.82-3.91-4.23v-2c0-3.47,2.25-4.23,3.91-4.23a10.5,10.5,0,0,1,2.18.22c.18.06.3.13.3.32v.93c0,.17-.07.29-.28.29h0c-.48,0-1.42-.11-2.16-.11-1.16,0-2,.62-2,2.58v2c0,1.92.84,2.59,2,2.59.73,0,1.67-.07,2.16-.11h0c.21,0,.28.13.28.29v.93C449.42,98.53,449.29,98.6,449.11,98.65Z"/><path class="cls-14" d="M457.93,98.68a13,13,0,0,1-2.63.19c-1.8,0-3.19-.48-3.19-2.83V91.22c0-2.35,1.4-2.83,3.19-2.83a13,13,0,0,1,2.63.19c.21,0,.28.1.28.29v.88a.28.28,0,0,1-.28.28h-2.82c-.8,0-1.09.28-1.09,1.19v1.49h3.75A.28.28,0,0,1,458,93v1a.28.28,0,0,1-.28.28H454V96c0,.91.29,1.19,1.09,1.19h2.82a.28.28,0,0,1,.28.28v.88C458.21,98.58,458.14,98.65,457.93,98.68Z"/></g></svg>